<svg width="142" height="142" viewBox="0 0 142 142" fill="none" xmlns="http://www.w3.org/2000/svg">
<g clip-path="url(#clip0_1_54)">
<path d="M77.8253 54.6323C74.5819 54.6323 72.9299 53.1203 71.4722 51.7863C70.1562 50.5815 69.1165 49.6299 66.8948 49.6299C64.6732 49.6299 63.6335 50.5815 62.3172 51.7863C60.8598 53.1203 59.2077 54.6323 55.9641 54.6323C52.7206 54.6323 51.0687 53.1203 49.6111 51.7863C48.295 50.5815 47.2556 49.6299 45.0339 49.6299C42.8125 49.6299 41.773 50.5815 40.457 51.7863C38.9995 53.1203 37.3475 54.6323 34.1039 54.6323C30.8608 54.6323 29.2092 53.1203 27.7517 51.7863C26.4359 50.5815 25.3964 49.6299 23.1752 49.6299C20.9538 49.6299 19.9143 50.5815 18.5982 51.7863C17.1408 53.1203 15.4888 54.6323 12.2454 54.6323C9.00183 54.6323 7.34979 53.1203 5.89215 51.7863C4.57609 50.5815 3.53661 49.6299 1.31497 49.6299C0.588886 49.6299 0 49.0413 0 48.315C0 47.5889 0.588886 47 1.31497 47C4.55834 47 6.21037 48.512 7.66802 49.846C8.98408 51.0508 10.0238 52.0024 12.2454 52.0024C14.4668 52.0024 15.5063 51.0508 16.8224 49.8462C18.2798 48.512 19.9318 47 23.1752 47C26.4184 47 28.0702 48.5122 29.5276 49.8462C30.8434 51.051 31.8827 52.0024 34.1039 52.0024C36.3255 52.0024 37.365 51.0508 38.6811 49.8462C40.1385 48.512 41.7906 47 45.0339 47C48.2775 47 49.9293 48.512 51.387 49.8462C52.703 51.0508 53.7427 52.0024 55.9641 52.0024C58.186 52.0024 59.2255 51.0508 60.5416 49.8462C61.9992 48.512 63.6512 47 66.8948 47C70.1384 47 71.7904 48.512 73.2481 49.8462C74.5641 51.0508 75.6036 52.0024 77.8253 52.0024C80.0473 52.0024 81.087 51.0508 82.4035 49.846C83.8612 48.512 85.5134 47 88.7572 47C89.4833 47 90.0722 47.5889 90.0722 48.315C90.0722 49.0413 89.4833 49.6299 88.7572 49.6299C86.5352 49.6299 85.4955 50.5815 84.179 51.7863C82.7213 53.1203 81.0693 54.6323 77.8253 54.6323Z" fill="#5C469C"/>
<path d="M77.8253 66.0287C74.5819 66.0287 72.9299 64.5167 71.4722 63.1826C70.1562 61.9779 69.1165 61.0263 66.8948 61.0263C64.6732 61.0263 63.6335 61.9779 62.3172 63.1826C60.8598 64.5167 59.2077 66.0287 55.9641 66.0287C52.7206 66.0287 51.0687 64.5167 49.6111 63.1826C48.295 61.9779 47.2556 61.0263 45.0339 61.0263C42.8125 61.0263 41.773 61.9779 40.457 63.1826C38.9995 64.5167 37.3475 66.0287 34.1039 66.0287C30.8608 66.0287 29.2092 64.5167 27.7517 63.1826C26.4359 61.9779 25.3964 61.0263 23.1752 61.0263C20.9538 61.0263 19.9143 61.9779 18.5982 63.1826C17.1408 64.5167 15.4888 66.0287 12.2454 66.0287C9.00183 66.0287 7.34979 64.5167 5.89215 63.1826C4.57609 61.9779 3.53661 61.0263 1.31497 61.0263C0.588886 61.0263 0 60.4377 0 59.7114C0 58.9853 0.588886 58.3964 1.31497 58.3964C4.55834 58.3964 6.21037 59.9084 7.66802 61.2424C8.98408 62.4471 10.0238 63.3987 12.2454 63.3987C14.4668 63.3987 15.5063 62.4471 16.8224 61.2426C18.2798 59.9084 19.9318 58.3964 23.1752 58.3964C26.4184 58.3964 28.0702 59.9086 29.5276 61.2426C30.8434 62.4474 31.8827 63.3987 34.1039 63.3987C36.3255 63.3987 37.365 62.4471 38.6811 61.2426C40.1385 59.9084 41.7906 58.3964 45.0339 58.3964C48.2775 58.3964 49.9293 59.9084 51.387 61.2426C52.703 62.4471 53.7427 63.3987 55.9641 63.3987C58.186 63.3987 59.2255 62.4471 60.5416 61.2426C61.9992 59.9084 63.6512 58.3964 66.8948 58.3964C70.1384 58.3964 71.7904 59.9084 73.2481 61.2426C74.5641 62.4471 75.6036 63.3987 77.8253 63.3987C80.0473 63.3987 81.087 62.4471 82.4035 61.2424C83.8612 59.9084 85.5134 58.3964 88.7572 58.3964C89.4833 58.3964 90.0722 58.9853 90.0722 59.7114C90.0722 60.4377 89.4833 61.0263 88.7572 61.0263C86.5352 61.0263 85.4955 61.9779 84.179 63.1826C82.7213 64.5167 81.0693 66.0287 77.8253 66.0287Z" fill="#5C469C"/>
<path d="M77.8253 77.4253C74.5819 77.4253 72.9299 75.9133 71.4722 74.5793C70.1562 73.3745 69.1165 72.4229 66.8948 72.4229C64.6732 72.4229 63.6335 73.3745 62.3172 74.579C60.8598 75.9133 59.2077 77.4253 55.9641 77.4253C52.7206 77.4253 51.0687 75.9133 49.6111 74.579C48.295 73.3745 47.2556 72.4229 45.0339 72.4229C42.8125 72.4229 41.773 73.3745 40.457 74.579C38.9995 75.9133 37.3475 77.4253 34.1039 77.4253C30.8608 77.4253 29.2092 75.9133 27.7517 74.579C26.4359 73.3745 25.3964 72.4229 23.1752 72.4229C20.9538 72.4229 19.9143 73.3745 18.5982 74.579C17.1408 75.9133 15.4888 77.4253 12.2454 77.4253C9.00183 77.4253 7.34979 75.9133 5.89215 74.579C4.57609 73.3745 3.53639 72.4229 1.31497 72.4229C0.588886 72.4229 0 71.834 0 71.108C0 70.3817 0.588886 69.793 1.31497 69.793C4.55834 69.793 6.21037 71.305 7.66802 72.639C8.98408 73.8438 10.0238 74.7954 12.2454 74.7954C14.4668 74.7954 15.5063 73.8438 16.8224 72.639C18.2798 71.305 19.9318 69.793 23.1752 69.793C26.4184 69.793 28.0702 71.305 29.5276 72.6392C30.8434 73.8437 31.8827 74.7954 34.1039 74.7954C36.3255 74.7954 37.365 73.8438 38.6811 72.639C40.1385 71.305 41.7906 69.793 45.0339 69.793C48.2775 69.793 49.9293 71.305 51.387 72.639C52.703 73.8438 53.7427 74.7954 55.9641 74.7954C58.186 74.7954 59.2255 73.8438 60.5416 72.639C61.9992 71.305 63.6512 69.793 66.8948 69.793C70.1384 69.793 71.7904 71.305 73.2481 72.639C74.5641 73.8438 75.6036 74.7954 77.8253 74.7954C80.0473 74.7954 81.087 73.8438 82.4035 72.639C83.8612 71.305 85.5134 69.793 88.7572 69.793C89.4833 69.793 90.0722 70.3817 90.0722 71.108C90.0722 71.834 89.4833 72.4229 88.7572 72.4229C86.5352 72.4229 85.4955 73.3745 84.179 74.5793C82.7213 75.9133 81.0693 77.4253 77.8253 77.4253Z" fill="#5C469C"/>
<path d="M77.8253 88.8217C74.5819 88.8217 72.9299 87.3097 71.4722 85.9756C70.1562 84.7709 69.1165 83.8193 66.8948 83.8193C64.6732 83.8193 63.6335 84.7709 62.3172 85.9754C60.8598 87.3097 59.2077 88.8217 55.9641 88.8217C52.7206 88.8217 51.0687 87.3097 49.6111 85.9754C48.295 84.7709 47.2556 83.8193 45.0339 83.8193C42.8125 83.8193 41.773 84.7709 40.457 85.9754C38.9995 87.3097 37.3475 88.8217 34.1039 88.8217C30.8608 88.8217 29.2092 87.3097 27.7517 85.9754C26.4359 84.7709 25.3964 83.8193 23.1752 83.8193C20.9538 83.8193 19.9143 84.7709 18.5982 85.9754C17.1408 87.3097 15.4888 88.8217 12.2454 88.8217C9.00183 88.8217 7.34979 87.3097 5.89215 85.9754C4.57609 84.7709 3.53639 83.8193 1.31497 83.8193C0.588886 83.8193 0 83.2304 0 82.5043C0 81.778 0.588886 81.1894 1.31497 81.1894C4.55834 81.1894 6.21037 82.7014 7.66802 84.0354C8.98408 85.2401 10.0238 86.1917 12.2454 86.1917C14.4668 86.1917 15.5063 85.2401 16.8224 84.0354C18.2798 82.7014 19.9318 81.1894 23.1752 81.1894C26.4184 81.1894 28.0702 82.7014 29.5276 84.0356C30.8434 85.2401 31.8827 86.1917 34.1039 86.1917C36.3255 86.1917 37.365 85.2401 38.6811 84.0354C40.1385 82.7014 41.7906 81.1894 45.0339 81.1894C48.2775 81.1894 49.9293 82.7014 51.387 84.0354C52.703 85.2401 53.7427 86.1917 55.9641 86.1917C58.186 86.1917 59.2255 85.2401 60.5416 84.0354C61.9992 82.7014 63.6512 81.1894 66.8948 81.1894C70.1384 81.1894 71.7904 82.7014 73.2481 84.0354C74.5641 85.2401 75.6036 86.1917 77.8253 86.1917C80.0473 86.1917 81.087 85.2401 82.4035 84.0354C83.8612 82.7014 85.5134 81.1894 88.7572 81.1894C89.4833 81.1894 90.0722 81.778 90.0722 82.5043C90.0722 83.2304 89.4833 83.8193 88.7572 83.8193C86.5352 83.8193 85.4955 84.7709 84.179 85.9756C82.7213 87.3097 81.0693 88.8217 77.8253 88.8217Z" fill="#5C469C"/>
<path d="M77.8253 100.218C74.5819 100.218 72.9299 98.7061 71.4722 97.372C70.1562 96.1673 69.1165 95.2157 66.8948 95.2157C64.6732 95.2157 63.6335 96.1673 62.3172 97.3718C60.8598 98.7061 59.2077 100.218 55.9641 100.218C52.7206 100.218 51.0687 98.7061 49.6111 97.3718C48.295 96.1673 47.2556 95.2157 45.0339 95.2157C42.8125 95.2157 41.773 96.1673 40.457 97.3718C38.9995 98.7061 37.3475 100.218 34.1039 100.218C30.8608 100.218 29.2092 98.7061 27.7517 97.3718C26.4359 96.1673 25.3964 95.2157 23.1752 95.2157C20.9538 95.2157 19.9143 96.1673 18.5982 97.3718C17.1408 98.7061 15.4888 100.218 12.2454 100.218C9.00183 100.218 7.34979 98.7061 5.89215 97.3718C4.57609 96.1673 3.53639 95.2157 1.31497 95.2157C0.588886 95.2157 0 94.6268 0 93.9007C0 93.1742 0.588886 92.5858 1.31497 92.5858C4.55834 92.5858 6.21037 94.0978 7.66802 95.4318C8.98408 96.6365 10.0238 97.5881 12.2454 97.5881C14.4668 97.5881 15.5063 96.6365 16.8224 95.4318C18.2798 94.0978 19.9318 92.5858 23.1752 92.5858C26.4184 92.5858 28.0702 94.0978 29.5276 95.432C30.8434 96.6365 31.8827 97.5881 34.1039 97.5881C36.3255 97.5881 37.365 96.6365 38.6811 95.4318C40.1385 94.0978 41.7906 92.5858 45.0339 92.5858C48.2775 92.5858 49.9293 94.0978 51.387 95.4318C52.703 96.6365 53.7427 97.5881 55.9641 97.5881C58.186 97.5881 59.2255 96.6365 60.5416 95.4318C61.9992 94.0978 63.6512 92.5858 66.8948 92.5858C70.1384 92.5858 71.7904 94.0978 73.2481 95.4318C74.5641 96.6365 75.6036 97.5881 77.8253 97.5881C80.0473 97.5881 81.087 96.6365 82.4035 95.4318C83.8612 94.0978 85.5134 92.5858 88.7572 92.5858C89.4833 92.5858 90.0722 93.1742 90.0722 93.9007C90.0722 94.6268 89.4833 95.2157 88.7572 95.2157C86.5352 95.2157 85.4955 96.1673 84.179 97.372C82.7213 98.7061 81.0693 100.218 77.8253 100.218Z" fill="#5C469C"/>
</g>
<path d="M85.396 53.309L69.628 92H64.93L49.162 53.309H53.347C53.815 53.309 54.193 53.426 54.481 53.66C54.769 53.894 54.985 54.191 55.129 54.551L66.037 81.848C66.271 82.46 66.496 83.126 66.712 83.846C66.946 84.566 67.153 85.322 67.333 86.114C67.513 85.322 67.702 84.566 67.9 83.846C68.098 83.126 68.314 82.46 68.548 81.848L79.429 54.551C79.537 54.245 79.744 53.966 80.05 53.714C80.374 53.444 80.761 53.309 81.211 53.309H85.396Z" fill="white"/>
<path d="M140.625 53.309L128.556 92H123.858L114.057 62.489C113.967 62.201 113.877 61.895 113.787 61.571C113.715 61.247 113.634 60.905 113.544 60.545C113.454 60.905 113.364 61.247 113.274 61.571C113.184 61.895 113.094 62.201 113.004 62.489L103.149 92H98.4509L86.3819 53.309H90.7289C91.1969 53.309 91.5839 53.426 91.8899 53.66C92.2139 53.894 92.4209 54.191 92.5109 54.551L100.503 81.443C100.629 81.929 100.746 82.451 100.854 83.009C100.98 83.567 101.097 84.161 101.205 84.791C101.331 84.161 101.457 83.567 101.583 83.009C101.727 82.433 101.88 81.911 102.042 81.443L111.141 54.551C111.249 54.245 111.456 53.966 111.762 53.714C112.086 53.444 112.473 53.309 112.923 53.309H114.435C114.903 53.309 115.281 53.426 115.569 53.66C115.857 53.894 116.073 54.191 116.217 54.551L125.289 81.443C125.451 81.911 125.595 82.415 125.721 82.955C125.865 83.495 126 84.062 126.126 84.656C126.216 84.062 126.315 83.495 126.423 82.955C126.531 82.415 126.648 81.911 126.774 81.443L134.793 54.551C134.883 54.227 135.081 53.939 135.387 53.687C135.711 53.435 136.098 53.309 136.548 53.309H140.625Z" fill="#5C469C"/>
<defs>
<clipPath id="clip0_1_54">
<rect width="90" height="76" fill="white" transform="translate(0 33)"/>
</clipPath>
</defs>
</svg>
