<svg width="371" height="76" viewBox="0 0 371 76" fill="none" xmlns="http://www.w3.org/2000/svg">
<path d="M174.396 20.309L158.628 59H153.93L138.162 20.309H142.347C142.815 20.309 143.193 20.426 143.481 20.66C143.769 20.894 143.985 21.191 144.129 21.551L155.037 48.848C155.271 49.46 155.496 50.126 155.712 50.846C155.946 51.566 156.153 52.322 156.333 53.114C156.513 52.322 156.702 51.566 156.9 50.846C157.098 50.126 157.314 49.46 157.548 48.848L168.429 21.551C168.537 21.245 168.744 20.966 169.05 20.714C169.374 20.444 169.761 20.309 170.211 20.309H174.396ZM183.428 31.649V59H178.622V31.649H183.428ZM184.454 23.063C184.454 23.531 184.355 23.972 184.157 24.386C183.977 24.782 183.725 25.142 183.401 25.466C183.095 25.772 182.726 26.015 182.294 26.195C181.88 26.375 181.439 26.465 180.971 26.465C180.503 26.465 180.062 26.375 179.648 26.195C179.252 26.015 178.901 25.772 178.595 25.466C178.289 25.142 178.046 24.782 177.866 24.386C177.686 23.972 177.596 23.531 177.596 23.063C177.596 22.595 177.686 22.154 177.866 21.74C178.046 21.308 178.289 20.939 178.595 20.633C178.901 20.309 179.252 20.057 179.648 19.877C180.062 19.697 180.503 19.607 180.971 19.607C181.439 19.607 181.88 19.697 182.294 19.877C182.726 20.057 183.095 20.309 183.401 20.633C183.725 20.939 183.977 21.308 184.157 21.74C184.355 22.154 184.454 22.595 184.454 23.063ZM196.158 52.412C197.04 53.6 198.003 54.437 199.047 54.923C200.109 55.409 201.27 55.652 202.53 55.652C205.104 55.652 207.075 54.743 208.443 52.925C209.811 51.107 210.495 48.398 210.495 44.798C210.495 41.45 209.883 38.993 208.659 37.427C207.453 35.843 205.725 35.051 203.475 35.051C201.909 35.051 200.541 35.411 199.371 36.131C198.219 36.851 197.148 37.868 196.158 39.182V52.412ZM196.158 35.591C197.31 34.259 198.606 33.197 200.046 32.405C201.504 31.613 203.178 31.217 205.068 31.217C206.67 31.217 208.11 31.523 209.388 32.135C210.684 32.747 211.782 33.638 212.682 34.808C213.582 35.96 214.266 37.364 214.734 39.02C215.22 40.676 215.463 42.539 215.463 44.609C215.463 46.823 215.193 48.839 214.653 50.657C214.113 52.475 213.33 54.032 212.304 55.328C211.296 56.606 210.063 57.605 208.605 58.325C207.147 59.027 205.509 59.378 203.691 59.378C201.891 59.378 200.37 59.045 199.128 58.379C197.904 57.695 196.833 56.732 195.915 55.49L195.672 57.974C195.528 58.658 195.114 59 194.43 59H191.325V19.229H196.158V35.591ZM239.847 42.341C239.847 41.225 239.685 40.208 239.361 39.29C239.055 38.354 238.596 37.553 237.984 36.887C237.39 36.203 236.661 35.681 235.797 35.321C234.933 34.943 233.952 34.754 232.854 34.754C230.55 34.754 228.723 35.429 227.373 36.779C226.041 38.111 225.213 39.965 224.889 42.341H239.847ZM243.735 55.166C243.141 55.886 242.43 56.516 241.602 57.056C240.774 57.578 239.883 58.01 238.929 58.352C237.993 58.694 237.021 58.946 236.013 59.108C235.005 59.288 234.006 59.378 233.016 59.378C231.126 59.378 229.38 59.063 227.778 58.433C226.194 57.785 224.817 56.849 223.647 55.625C222.495 54.383 221.595 52.853 220.947 51.035C220.299 49.217 219.975 47.129 219.975 44.771C219.975 42.863 220.263 41.081 220.839 39.425C221.433 37.769 222.279 36.338 223.377 35.132C224.475 33.908 225.816 32.954 227.4 32.27C228.984 31.568 230.766 31.217 232.746 31.217C234.384 31.217 235.896 31.496 237.282 32.054C238.686 32.594 239.892 33.386 240.9 34.43C241.926 35.456 242.727 36.734 243.303 38.264C243.879 39.776 244.167 41.504 244.167 43.448C244.167 44.204 244.086 44.708 243.924 44.96C243.762 45.212 243.456 45.338 243.006 45.338H224.727C224.781 47.066 225.015 48.569 225.429 49.847C225.861 51.125 226.455 52.196 227.211 53.06C227.967 53.906 228.867 54.545 229.911 54.977C230.955 55.391 232.125 55.598 233.421 55.598C234.627 55.598 235.662 55.463 236.526 55.193C237.408 54.905 238.164 54.599 238.794 54.275C239.424 53.951 239.946 53.654 240.36 53.384C240.792 53.096 241.161 52.952 241.467 52.952C241.863 52.952 242.169 53.105 242.385 53.411L243.735 55.166Z" fill="white"/>
<path d="M298.127 20.309L286.058 59H281.36L271.559 29.489C271.469 29.201 271.379 28.895 271.289 28.571C271.217 28.247 271.136 27.905 271.046 27.545C270.956 27.905 270.866 28.247 270.776 28.571C270.686 28.895 270.596 29.201 270.506 29.489L260.651 59H255.953L243.884 20.309H248.231C248.699 20.309 249.086 20.426 249.392 20.66C249.716 20.894 249.923 21.191 250.013 21.551L258.005 48.443C258.131 48.929 258.248 49.451 258.356 50.009C258.482 50.567 258.599 51.161 258.707 51.791C258.833 51.161 258.959 50.567 259.085 50.009C259.229 49.433 259.382 48.911 259.544 48.443L268.643 21.551C268.751 21.245 268.958 20.966 269.264 20.714C269.588 20.444 269.975 20.309 270.425 20.309H271.937C272.405 20.309 272.783 20.426 273.071 20.66C273.359 20.894 273.575 21.191 273.719 21.551L282.791 48.443C282.953 48.911 283.097 49.415 283.223 49.955C283.367 50.495 283.502 51.062 283.628 51.656C283.718 51.062 283.817 50.495 283.925 49.955C284.033 49.415 284.15 48.911 284.276 48.443L292.295 21.551C292.385 21.227 292.583 20.939 292.889 20.687C293.213 20.435 293.6 20.309 294.05 20.309H298.127ZM318 42.341C318 41.225 317.838 40.208 317.514 39.29C317.208 38.354 316.749 37.553 316.137 36.887C315.543 36.203 314.814 35.681 313.95 35.321C313.086 34.943 312.105 34.754 311.007 34.754C308.703 34.754 306.876 35.429 305.526 36.779C304.194 38.111 303.366 39.965 303.042 42.341H318ZM321.888 55.166C321.294 55.886 320.583 56.516 319.755 57.056C318.927 57.578 318.036 58.01 317.082 58.352C316.146 58.694 315.174 58.946 314.166 59.108C313.158 59.288 312.159 59.378 311.169 59.378C309.279 59.378 307.533 59.063 305.931 58.433C304.347 57.785 302.97 56.849 301.8 55.625C300.648 54.383 299.748 52.853 299.1 51.035C298.452 49.217 298.128 47.129 298.128 44.771C298.128 42.863 298.416 41.081 298.992 39.425C299.586 37.769 300.432 36.338 301.53 35.132C302.628 33.908 303.969 32.954 305.553 32.27C307.137 31.568 308.919 31.217 310.899 31.217C312.537 31.217 314.049 31.496 315.435 32.054C316.839 32.594 318.045 33.386 319.053 34.43C320.079 35.456 320.88 36.734 321.456 38.264C322.032 39.776 322.32 41.504 322.32 43.448C322.32 44.204 322.239 44.708 322.077 44.96C321.915 45.212 321.609 45.338 321.159 45.338H302.88C302.934 47.066 303.168 48.569 303.582 49.847C304.014 51.125 304.608 52.196 305.364 53.06C306.12 53.906 307.02 54.545 308.064 54.977C309.108 55.391 310.278 55.598 311.574 55.598C312.78 55.598 313.815 55.463 314.679 55.193C315.561 54.905 316.317 54.599 316.947 54.275C317.577 53.951 318.099 53.654 318.513 53.384C318.945 53.096 319.314 52.952 319.62 52.952C320.016 52.952 320.322 53.105 320.538 53.411L321.888 55.166ZM343.046 46.688C340.832 46.76 338.942 46.94 337.376 47.228C335.828 47.498 334.559 47.858 333.569 48.308C332.597 48.758 331.886 49.289 331.436 49.901C331.004 50.513 330.788 51.197 330.788 51.953C330.788 52.673 330.905 53.294 331.139 53.816C331.373 54.338 331.688 54.77 332.084 55.112C332.498 55.436 332.975 55.679 333.515 55.841C334.073 55.985 334.667 56.057 335.297 56.057C336.143 56.057 336.917 55.976 337.619 55.814C338.321 55.634 338.978 55.382 339.59 55.058C340.22 54.734 340.814 54.347 341.372 53.897C341.948 53.447 342.506 52.934 343.046 52.358V46.688ZM327.521 35.51C329.033 34.052 330.662 32.963 332.408 32.243C334.154 31.523 336.089 31.163 338.213 31.163C339.743 31.163 341.102 31.415 342.29 31.919C343.478 32.423 344.477 33.125 345.287 34.025C346.097 34.925 346.709 36.014 347.123 37.292C347.537 38.57 347.744 39.974 347.744 41.504V59H345.611C345.143 59 344.783 58.928 344.531 58.784C344.279 58.622 344.081 58.316 343.937 57.866L343.397 55.274C342.677 55.94 341.975 56.534 341.291 57.056C340.607 57.56 339.887 57.992 339.131 58.352C338.375 58.694 337.565 58.955 336.701 59.135C335.855 59.333 334.91 59.432 333.866 59.432C332.804 59.432 331.805 59.288 330.869 59C329.933 58.694 329.114 58.244 328.412 57.65C327.728 57.056 327.179 56.309 326.765 55.409C326.369 54.491 326.171 53.411 326.171 52.169C326.171 51.089 326.468 50.054 327.062 49.064C327.656 48.056 328.619 47.165 329.951 46.391C331.283 45.617 333.02 44.987 335.162 44.501C337.304 43.997 339.932 43.709 343.046 43.637V41.504C343.046 39.38 342.587 37.778 341.669 36.698C340.751 35.6 339.41 35.051 337.646 35.051C336.458 35.051 335.459 35.204 334.649 35.51C333.857 35.798 333.164 36.131 332.57 36.509C331.994 36.869 331.49 37.202 331.058 37.508C330.644 37.796 330.23 37.94 329.816 37.94C329.492 37.94 329.213 37.859 328.979 37.697C328.745 37.517 328.547 37.301 328.385 37.049L327.521 35.51ZM359.628 37.13C360.492 35.258 361.554 33.8 362.814 32.756C364.074 31.694 365.613 31.163 367.431 31.163C368.007 31.163 368.556 31.226 369.078 31.352C369.618 31.478 370.095 31.676 370.509 31.946L370.158 35.537C370.05 35.987 369.78 36.212 369.348 36.212C369.096 36.212 368.727 36.158 368.241 36.05C367.755 35.942 367.206 35.888 366.594 35.888C365.73 35.888 364.956 36.014 364.272 36.266C363.606 36.518 363.003 36.896 362.463 37.4C361.941 37.886 361.464 38.498 361.032 39.236C360.618 39.956 360.24 40.784 359.898 41.72V59H355.065V31.649H357.819C358.341 31.649 358.701 31.748 358.899 31.946C359.097 32.144 359.232 32.486 359.304 32.972L359.628 37.13Z" fill="#5C469C"/>
<g clip-path="url(#clip0_1_35)">
<path d="M111.46 10.9308C106.815 10.9308 104.449 8.76539 102.361 6.85481C100.477 5.12941 98.9875 3.76655 95.8057 3.76655C92.6239 3.76655 91.1349 5.12941 89.2497 6.85481C87.1624 8.76539 84.7964 10.9308 80.151 10.9308C75.5056 10.9308 73.1398 8.76539 71.0522 6.85481C69.1674 5.12941 67.6787 3.76655 64.4969 3.76655C61.3154 3.76655 59.8267 5.12941 57.9418 6.85481C55.8545 8.76539 53.4885 10.9308 48.8431 10.9308C44.1983 10.9308 41.8329 8.76539 39.7456 6.85481C37.8611 5.12941 36.3723 3.76655 33.1912 3.76655C30.0097 3.76655 28.521 5.12941 26.6361 6.85481C24.5488 8.76539 22.1828 10.9308 17.5377 10.9308C12.8923 10.9308 10.5263 8.76539 8.43865 6.85481C6.5538 5.12941 5.06507 3.76655 1.88328 3.76655C0.843394 3.76655 0 2.92347 0 1.88328C0 0.843394 0.843394 0 1.88328 0C6.52838 0 8.8944 2.16545 10.982 4.07604C12.8669 5.80143 14.3559 7.16429 17.5377 7.16429C20.7192 7.16429 22.2079 5.80143 24.0927 4.07635C26.18 2.16545 28.5461 0 33.1912 0C37.836 0 40.2017 2.16577 42.289 4.07635C44.1735 5.80174 45.6619 7.16429 48.8431 7.16429C52.0249 7.16429 53.5136 5.80143 55.3984 4.07635C57.4857 2.16545 59.8518 0 64.4969 0C69.1423 0 71.508 2.16545 73.5956 4.07635C75.4804 5.80143 76.9695 7.16429 80.151 7.16429C83.3331 7.16429 84.8218 5.80143 86.7066 4.07635C88.7943 2.16545 91.1603 0 95.8057 0C100.451 0 102.817 2.16545 104.905 4.07635C106.79 5.80143 108.278 7.16429 111.46 7.16429C114.643 7.16429 116.132 5.80143 118.017 4.07604C120.105 2.16545 122.471 0 127.117 0C128.157 0 129 0.843394 129 1.88328C129 2.92347 128.157 3.76655 127.117 3.76655C123.934 3.76655 122.445 5.12941 120.56 6.85481C118.472 8.76539 116.106 10.9308 111.46 10.9308Z" fill="#5C469C"/>
<path d="M111.46 27.2526C106.815 27.2526 104.449 25.0871 102.361 23.1765C100.477 21.4511 98.9875 20.0883 95.8057 20.0883C92.6239 20.0883 91.1349 21.4511 89.2497 23.1765C87.1624 25.0871 84.7964 27.2526 80.151 27.2526C75.5056 27.2526 73.1398 25.0871 71.0522 23.1765C69.1674 21.4511 67.6787 20.0883 64.4969 20.0883C61.3154 20.0883 59.8267 21.4511 57.9418 23.1765C55.8545 25.0871 53.4885 27.2526 48.8431 27.2526C44.1983 27.2526 41.8329 25.0871 39.7456 23.1765C37.8611 21.4511 36.3723 20.0883 33.1912 20.0883C30.0097 20.0883 28.521 21.4511 26.6361 23.1765C24.5488 25.0871 22.1828 27.2526 17.5377 27.2526C12.8923 27.2526 10.5263 25.0871 8.43865 23.1765C6.5538 21.4511 5.06507 20.0883 1.88328 20.0883C0.843394 20.0883 0 19.2452 0 18.205C0 17.1651 0.843394 16.3217 1.88328 16.3217C6.52838 16.3217 8.8944 18.4872 10.982 20.3978C12.8669 22.1231 14.3559 23.486 17.5377 23.486C20.7192 23.486 22.2079 22.1231 24.0927 20.3981C26.18 18.4872 28.5461 16.3217 33.1912 16.3217C37.836 16.3217 40.2017 18.4875 42.289 20.3981C44.1735 22.1235 45.6619 23.486 48.8431 23.486C52.0249 23.486 53.5136 22.1231 55.3984 20.3981C57.4857 18.4872 59.8518 16.3217 64.4969 16.3217C69.1423 16.3217 71.508 18.4872 73.5956 20.3981C75.4804 22.1231 76.9695 23.486 80.151 23.486C83.3331 23.486 84.8218 22.1231 86.7066 20.3981C88.7943 18.4872 91.1603 16.3217 95.8057 16.3217C100.451 16.3217 102.817 18.4872 104.905 20.3981C106.79 22.1231 108.278 23.486 111.46 23.486C114.643 23.486 116.132 22.1231 118.017 20.3978C120.105 18.4872 122.471 16.3217 127.117 16.3217C128.157 16.3217 129 17.1651 129 18.205C129 19.2452 128.157 20.0883 127.117 20.0883C123.934 20.0883 122.445 21.4511 120.56 23.1765C118.472 25.0871 116.106 27.2526 111.46 27.2526Z" fill="#5C469C"/>
<path d="M111.46 43.5746C106.815 43.5746 104.449 41.4092 102.361 39.4986C100.477 37.7732 98.9875 36.4103 95.8057 36.4103C92.6239 36.4103 91.1349 37.7732 89.2497 39.4983C87.1624 41.4092 84.7964 43.5746 80.151 43.5746C75.5056 43.5746 73.1398 41.4092 71.0522 39.4983C69.1674 37.7732 67.6787 36.4103 64.4969 36.4103C61.3154 36.4103 59.8267 37.7732 57.9418 39.4983C55.8545 41.4092 53.4885 43.5746 48.8431 43.5746C44.1983 43.5746 41.8329 41.4092 39.7456 39.4983C37.8611 37.7732 36.3723 36.4103 33.1912 36.4103C30.0097 36.4103 28.521 37.7732 26.6361 39.4983C24.5488 41.4092 22.1828 43.5746 17.5377 43.5746C12.8923 43.5746 10.5263 41.4092 8.43865 39.4983C6.5538 37.7732 5.06476 36.4103 1.88328 36.4103C0.843394 36.4103 0 35.5669 0 34.527C0 33.4868 0.843394 32.6438 1.88328 32.6438C6.52838 32.6438 8.8944 34.8092 10.982 36.7198C12.8669 38.4452 14.3559 39.8081 17.5377 39.8081C20.7192 39.8081 22.2079 38.4452 24.0927 36.7198C26.18 34.8092 28.5461 32.6438 33.1912 32.6438C37.836 32.6438 40.2017 34.8092 42.289 36.7201C44.1735 38.4452 45.6619 39.8081 48.8431 39.8081C52.0249 39.8081 53.5136 38.4452 55.3984 36.7198C57.4857 34.8092 59.8518 32.6438 64.4969 32.6438C69.1423 32.6438 71.508 34.8092 73.5956 36.7198C75.4804 38.4452 76.9695 39.8081 80.151 39.8081C83.3331 39.8081 84.8218 38.4452 86.7066 36.7198C88.7943 34.8092 91.1603 32.6438 95.8057 32.6438C100.451 32.6438 102.817 34.8092 104.905 36.7198C106.79 38.4452 108.278 39.8081 111.46 39.8081C114.643 39.8081 116.132 38.4452 118.017 36.7198C120.105 34.8092 122.471 32.6438 127.117 32.6438C128.157 32.6438 129 33.4868 129 34.527C129 35.5669 128.157 36.4103 127.117 36.4103C123.934 36.4103 122.445 37.7732 120.56 39.4986C118.472 41.4092 116.106 43.5746 111.46 43.5746Z" fill="#5C469C"/>
<path d="M111.46 59.8963C106.815 59.8963 104.449 57.7309 102.361 55.8203C100.477 54.0949 98.9875 52.732 95.8057 52.732C92.6239 52.732 91.1349 54.0949 89.2497 55.82C87.1624 57.7309 84.7964 59.8963 80.151 59.8963C75.5056 59.8963 73.1398 57.7309 71.0522 55.82C69.1674 54.0949 67.6787 52.732 64.4969 52.732C61.3154 52.732 59.8267 54.0949 57.9418 55.82C55.8545 57.7309 53.4885 59.8963 48.8431 59.8963C44.1983 59.8963 41.8329 57.7309 39.7456 55.82C37.8611 54.0949 36.3723 52.732 33.1912 52.732C30.0097 52.732 28.521 54.0949 26.6361 55.82C24.5488 57.7309 22.1828 59.8963 17.5377 59.8963C12.8923 59.8963 10.5263 57.7309 8.43865 55.82C6.5538 54.0949 5.06476 52.732 1.88328 52.732C0.843394 52.732 0 51.8886 0 50.8488C0 49.8086 0.843394 48.9655 1.88328 48.9655C6.52838 48.9655 8.8944 51.1309 10.982 53.0415C12.8669 54.7669 14.3559 56.1298 17.5377 56.1298C20.7192 56.1298 22.2079 54.7669 24.0927 53.0415C26.18 51.1309 28.5461 48.9655 33.1912 48.9655C37.836 48.9655 40.2017 51.1309 42.289 53.0418C44.1735 54.7669 45.6619 56.1298 48.8431 56.1298C52.0249 56.1298 53.5136 54.7669 55.3984 53.0415C57.4857 51.1309 59.8518 48.9655 64.4969 48.9655C69.1423 48.9655 71.508 51.1309 73.5956 53.0415C75.4804 54.7669 76.9695 56.1298 80.151 56.1298C83.3331 56.1298 84.8218 54.7669 86.7066 53.0415C88.7943 51.1309 91.1603 48.9655 95.8057 48.9655C100.451 48.9655 102.817 51.1309 104.905 53.0415C106.79 54.7669 108.278 56.1298 111.46 56.1298C114.643 56.1298 116.132 54.7669 118.017 53.0415C120.105 51.1309 122.471 48.9655 127.117 48.9655C128.157 48.9655 129 49.8086 129 50.8488C129 51.8886 128.157 52.732 127.117 52.732C123.934 52.732 122.445 54.0949 120.56 55.8203C118.472 57.7309 116.106 59.8963 111.46 59.8963Z" fill="#5C469C"/>
<path d="M111.46 76.2181C106.815 76.2181 104.449 74.0526 102.361 72.142C100.477 70.4166 98.9875 69.0538 95.8057 69.0538C92.6239 69.0538 91.1349 70.4166 89.2497 72.1417C87.1624 74.0526 84.7964 76.2181 80.151 76.2181C75.5056 76.2181 73.1398 74.0526 71.0522 72.1417C69.1674 70.4166 67.6787 69.0538 64.4969 69.0538C61.3154 69.0538 59.8267 70.4166 57.9418 72.1417C55.8545 74.0526 53.4885 76.2181 48.8431 76.2181C44.1983 76.2181 41.8329 74.0526 39.7456 72.1417C37.8611 70.4166 36.3723 69.0538 33.1912 69.0538C30.0097 69.0538 28.521 70.4166 26.6361 72.1417C24.5488 74.0526 22.1828 76.2181 17.5377 76.2181C12.8923 76.2181 10.5263 74.0526 8.43865 72.1417C6.5538 70.4166 5.06476 69.0538 1.88328 69.0538C0.843394 69.0538 0 68.2104 0 67.1705C0 66.13 0.843394 65.2872 1.88328 65.2872C6.52838 65.2872 8.8944 67.4527 10.982 69.3632C12.8669 71.0886 14.3559 72.4515 17.5377 72.4515C20.7192 72.4515 22.2079 71.0886 24.0927 69.3632C26.18 67.4527 28.5461 65.2872 33.1912 65.2872C37.836 65.2872 40.2017 67.4527 42.289 69.3636C44.1735 71.0886 45.6619 72.4515 48.8431 72.4515C52.0249 72.4515 53.5136 71.0886 55.3984 69.3632C57.4857 67.4527 59.8518 65.2872 64.4969 65.2872C69.1423 65.2872 71.508 67.4527 73.5956 69.3632C75.4804 71.0886 76.9695 72.4515 80.151 72.4515C83.3331 72.4515 84.8218 71.0886 86.7066 69.3632C88.7943 67.4527 91.1603 65.2872 95.8057 65.2872C100.451 65.2872 102.817 67.4527 104.905 69.3632C106.79 71.0886 108.278 72.4515 111.46 72.4515C114.643 72.4515 116.132 71.0886 118.017 69.3632C120.105 67.4527 122.471 65.2872 127.117 65.2872C128.157 65.2872 129 66.13 129 67.1705C129 68.2104 128.157 69.0538 127.117 69.0538C123.934 69.0538 122.445 70.4166 120.56 72.142C118.472 74.0526 116.106 76.2181 111.46 76.2181Z" fill="#5C469C"/>
</g>
<defs>
<clipPath id="clip0_1_35">
<rect width="129" height="76" fill="white"/>
</clipPath>
</defs>
</svg>
